<svg xmlns="http://www.w3.org/2000/svg" viewBox="0 0 800 1000" width="800" height="1000">
  <defs>
  <pattern id="asanoha" width="46" height="79.7" patternUnits="userSpaceOnUse">
    <path d="M 0 0 L 46 0 M 0 0 L 23.0 39.8 M 46 0 L 23.0 39.8 M 0 79.7 L 46 79.7 M 0 79.7 L 23.0 39.8 M 46 79.7 L 23.0 39.8 M 23.0 0 L 23.0 39.8 M 23.0 39.8 L 23.0 79.7 M 0 0 L 0 79.7 M 46 0 L 46 79.7" stroke="#B8945F" stroke-width="0.7" fill="none" opacity="0.055"/>
  </pattern>
    <radialGradient id="orb" cx="42%" cy="34%" r="72%">
      <stop offset="0%" stop-color="#22334d"/>
      <stop offset="100%" stop-color="#16202f"/>
    </radialGradient>
    <linearGradient id="bg" x1="0" y1="0" x2="0" y2="1">
      <stop offset="0%" stop-color="#141d2b"/>
      <stop offset="100%" stop-color="#0f1723"/>
    </linearGradient>
    <clipPath id="orbclip"><circle cx="400" cy="420" r="215"/></clipPath>

  </defs>

  <rect width="800" height="1000" fill="url(#bg)"/>
  <rect width="800" height="1000" fill="url(#asanoha)"/>

  <circle cx="49" cy="123" r="11" fill="#E8E0CE" opacity="0.24"/>
  <circle cx="140" cy="123" r="9" fill="#E8E0CE" opacity="0.25"/>
  <circle cx="146" cy="588" r="14" fill="#E8E0CE" opacity="0.13"/>
  <circle cx="337" cy="777" r="8" fill="#E8E0CE" opacity="0.10"/>
  <circle cx="717" cy="338" r="9" fill="#E8E0CE" opacity="0.17"/>
  <circle cx="303" cy="747" r="9" fill="#E8E0CE" opacity="0.14"/>
  <circle cx="727" cy="661" r="11" fill="#E8E0CE" opacity="0.14"/>
  <circle cx="642" cy="772" r="7" fill="#E8E0CE" opacity="0.25"/>
  <circle cx="665" cy="522" r="9" fill="#E8E0CE" opacity="0.26"/>

  <circle cx="400" cy="420" r="215" fill="url(#orb)"/>
  <g clip-path="url(#orbclip)">
    <path d="M 316 280 L 484 280 L 408 416 L 484 560 L 316 560 L 392 416 Z"
      fill="none" stroke="#B8945F" stroke-width="1.8" opacity="0.60"/>
    <path d="M 330 294 L 470 294 L 404 414 Z" fill="#E8E0CE" opacity="0.16"/>
    <path d="M 342 546 L 458 546 L 400 462 Z" fill="#E8E0CE" opacity="0.30"/>
    <line x1="400" y1="418" x2="400" y2="464" stroke="#B8945F" stroke-width="1.4" opacity="0.75"/>
    <circle cx="376" cy="483" r="2.0" fill="#B8945F" opacity="0.43"/>
    <circle cx="360" cy="505" r="2.9" fill="#B8945F" opacity="0.75"/>
    <circle cx="424" cy="492" r="2.3" fill="#B8945F" opacity="0.49"/>
    <circle cx="370" cy="484" r="1.7" fill="#B8945F" opacity="0.81"/>
    <circle cx="430" cy="534" r="2.7" fill="#B8945F" opacity="0.45"/>
    <circle cx="383" cy="521" r="2.6" fill="#B8945F" opacity="0.78"/>
    <circle cx="435" cy="482" r="2.4" fill="#B8945F" opacity="0.69"/>
    <circle cx="401" cy="489" r="2.2" fill="#B8945F" opacity="0.39"/>
    <circle cx="440" cy="538" r="2.3" fill="#B8945F" opacity="0.50"/>
    <circle cx="438" cy="517" r="2.8" fill="#B8945F" opacity="0.77"/>
    <circle cx="401" cy="506" r="2.4" fill="#B8945F" opacity="0.57"/>
    <circle cx="369" cy="498" r="2.7" fill="#B8945F" opacity="0.37"/>
    <circle cx="358" cy="521" r="1.8" fill="#B8945F" opacity="0.62"/>
    <circle cx="397" cy="501" r="3.0" fill="#B8945F" opacity="0.45"/>
    <circle cx="392" cy="491" r="2.4" fill="#B8945F" opacity="0.49"/>
    <circle cx="387" cy="530" r="1.9" fill="#B8945F" opacity="0.63"/>
    <circle cx="437" cy="483" r="1.5" fill="#B8945F" opacity="0.46"/>
    <circle cx="424" cy="520" r="1.8" fill="#B8945F" opacity="0.52"/>
    <circle cx="370" cy="509" r="1.5" fill="#B8945F" opacity="0.70"/>
    <circle cx="436" cy="545" r="2.6" fill="#B8945F" opacity="0.83"/>
    <circle cx="356" cy="497" r="2.9" fill="#B8945F" opacity="0.74"/>
    <circle cx="392" cy="544" r="2.4" fill="#B8945F" opacity="0.76"/>
    <circle cx="381" cy="490" r="2.1" fill="#B8945F" opacity="0.42"/>
    <circle cx="389" cy="545" r="1.9" fill="#B8945F" opacity="0.35"/>
    <circle cx="358" cy="488" r="2.7" fill="#B8945F" opacity="0.53"/>
    <circle cx="381" cy="483" r="3.0" fill="#B8945F" opacity="0.56"/>
    <line x1="304" y1="280" x2="496" y2="280" stroke="#B8945F" stroke-width="2.2" opacity="0.55"/>
    <line x1="304" y1="560" x2="496" y2="560" stroke="#B8945F" stroke-width="2.2" opacity="0.55"/>
  </g>
  <circle cx="400" cy="420" r="215" fill="none" stroke="#B8945F" stroke-width="1.6" opacity="0.55"/>
  <circle cx="400" cy="420" r="229" fill="none" stroke="#8f7549" stroke-width="0.9" opacity="0.30"/>
</svg>
